<svg xmlns="http://www.w3.org/2000/svg" width="1400" height="520" viewBox="0 0 1400 520">
  <defs>
    <linearGradient id="bg2" x1="0" y1="0" x2="1" y2="1">
      <stop offset="0%" stop-color="#13171c"/>
      <stop offset="100%" stop-color="#252a30"/>
    </linearGradient>
    <linearGradient id="floor2" x1="0" y1="0" x2="1" y2="0">
      <stop offset="0%" stop-color="#70767b"/>
      <stop offset="55%" stop-color="#8c9297"/>
      <stop offset="100%" stop-color="#71777c"/>
    </linearGradient>
    <style>
      .title { font: 700 34px 'Noto Sans CJK SC','Microsoft YaHei',sans-serif; fill: #f3f5f7; }
      .sub { font: 500 18px 'Noto Sans CJK SC','Microsoft YaHei',sans-serif; fill: #b9c0c7; }
      .label { font: 600 20px 'Noto Sans CJK SC','Microsoft YaHei',sans-serif; fill: #eef2f5; }
      .small { font: 500 16px 'Noto Sans CJK SC','Microsoft YaHei',sans-serif; fill: #d8dde2; }
    </style>
  </defs>

  <rect width="1400" height="520" fill="url(#bg2)"/>
  <rect x="36" y="30" width="330" height="70" rx="18" fill="#0d1116" fill-opacity="0.62" stroke="#3a444d"/>
  <text x="62" y="72" class="title">全局角度约束</text>
  <text x="62" y="97" class="sub">结合三段巷道转折关系</text>

  <polyline points="110,290 540,290 650,130 1280,130"
            fill="none" stroke="#0b0e12" stroke-opacity="0.30" stroke-width="178" stroke-linejoin="round"/>
  <polyline points="110,290 540,290 650,130 1280,130"
            fill="none" stroke="#41484f" stroke-width="156" stroke-linejoin="round"/>
  <polyline points="110,290 540,290 650,130 1280,130"
            fill="none" stroke="url(#floor2)" stroke-width="136" stroke-linejoin="round"/>
  <polyline points="110,290 540,290 650,130 1280,130"
            fill="none" stroke="#ebd45c" stroke-width="6" stroke-linejoin="round" stroke-dasharray="22 14" stroke-opacity="0.9"/>

  <line x1="980" y1="130" x2="980" y2="36" stroke="#0b0e12" stroke-opacity="0.30" stroke-width="118"/>
  <line x1="980" y1="130" x2="980" y2="36" stroke="#41484f" stroke-width="102"/>
  <line x1="980" y1="130" x2="980" y2="36" stroke="url(#floor2)" stroke-width="88"/>
  <line x1="1180" y1="130" x2="1180" y2="236" stroke="#0b0e12" stroke-opacity="0.30" stroke-width="118"/>
  <line x1="1180" y1="130" x2="1180" y2="236" stroke="#41484f" stroke-width="102"/>
  <line x1="1180" y1="130" x2="1180" y2="236" stroke="url(#floor2)" stroke-width="88"/>

  <g fill="#ffd87a" opacity="0.80">
    <circle cx="210" cy="290" r="5"/><circle cx="320" cy="290" r="5"/><circle cx="430" cy="290" r="5"/>
    <circle cx="575" cy="240" r="5"/><circle cx="610" cy="185" r="5"/>
    <circle cx="760" cy="130" r="5"/><circle cx="920" cy="130" r="5"/><circle cx="1080" cy="130" r="5"/><circle cx="1240" cy="130" r="5"/>
  </g>

  <circle cx="180" cy="290" r="10" fill="#11161b" stroke="#ffffff" stroke-width="4"/>
  <circle cx="420" cy="290" r="10" fill="#11161b" stroke="#ffffff" stroke-width="4"/>
  <circle cx="540" cy="290" r="10" fill="#11161b" stroke="#ffffff" stroke-width="4"/>
  <circle cx="650" cy="130" r="10" fill="#11161b" stroke="#ffffff" stroke-width="4"/>
  <text x="164" y="323" class="label">P₁</text>
  <text x="404" y="323" class="label">P₂</text>
  <text x="553" y="323" class="label">P₃</text>
  <text x="665" y="122" class="label">P₄</text>

  <line x1="180" y1="290" x2="420" y2="290" stroke="#6fc2ff" stroke-width="8" stroke-linecap="round"/>
  <polygon points="420,290 392,278 392,302" fill="#6fc2ff"/>
  <line x1="540" y1="290" x2="650" y2="130" stroke="#ff6f6f" stroke-width="8" stroke-linecap="round"/>
  <polygon points="650,130 645,160 621,144" fill="#ff6f6f"/>

  <path d="M 380 290 A 150 150 0 0 0 555 182" fill="none" stroke="#f3f6fa" stroke-width="4"/>
  <rect x="430" y="180" width="120" height="42" rx="14" fill="#0d1116" fill-opacity="0.78" stroke="#5d6770"/>
  <text x="452" y="208" class="label">θ<tspan dy="-6" font-size="14">exp</tspan></text>

  <text x="235" y="252" class="small" fill="#9dd6ff">第一段方向 d₁₂</text>
  <text x="650" y="230" class="small" fill="#ff9b9b">第二段方向 d₃₄</text>

  <text x="947" y="28" class="small">支巷 A</text>
  <text x="1194" y="262" class="small">支巷 B</text>

  <rect x="1005" y="395" width="325" height="86" rx="18" fill="#0d1116" fill-opacity="0.70" stroke="#39424a"/>
  <text x="1030" y="428" class="label">适合 PPT 的讲法</text>
  <text x="1030" y="455" class="small">先展示巷道转弯，再说明“四点确定两段方向”。</text>
</svg>
